<svg width="1401" height="700" viewBox="0 0 1401 700" fill="none" xmlns="http://www.w3.org/2000/svg">
<g opacity="0.6">
<path d="M249.532 14.5604L237.693 1.58691L224.72 13.4252L236.558 26.3986L249.532 14.5604Z" stroke="white" stroke-width="2"/>
<path d="M419.268 17.6121L417.768 16.7461V18.4781V35.5666V37.2986L419.268 36.4326L434.067 27.8884L435.567 27.0223L434.067 26.1563L419.268 17.6121Z" stroke="white" stroke-width="2"/>
<path d="M12.7271 26.09L11.6638 24.7227L11.0114 26.3272L4.57432 42.1569L3.92188 43.7613L5.63761 43.5241L22.565 41.184L24.2808 40.9468L23.2175 39.5795L12.7271 26.09Z" stroke="white" stroke-width="2"/>
<path d="M15.766 241.374L15.1453 239.757L14.0553 241.103L3.30098 254.383L2.21094 255.729L3.92166 256L20.7996 258.674L22.5103 258.945L21.8897 257.328L15.766 241.374Z" stroke="white" stroke-width="2"/>
<path d="M537.592 481.112L536.971 479.495L535.881 480.841L511.704 510.697L510.613 512.043L512.324 512.314L550.269 518.325L551.98 518.596L551.359 516.979L537.592 481.112Z" stroke="white" stroke-width="2"/>
<path d="M231.592 594.111L230.971 592.494L229.881 593.84L205.704 623.696L204.613 625.042L206.324 625.313L244.269 631.324L245.98 631.595L245.359 629.978L231.592 594.111Z" stroke="white" stroke-width="2"/>
<path d="M656.3 624.151L655.675 622.674L654.624 623.885L602.923 683.477L601.742 684.838L603.522 685.12L685.976 698.181L687.755 698.463L687.053 696.804L656.3 624.151Z" stroke="white" stroke-width="2"/>
<path d="M747.733 387.14L748.373 384.13L746.086 386.189L743.459 388.554L740.398 386.787L737.733 385.248L738.985 388.06L740.422 391.289L737.796 393.654L735.508 395.713L738.569 395.391L742.084 395.022L743.522 398.251L744.774 401.063L745.414 398.052L746.149 394.595L749.664 394.225L752.724 393.904L750.059 392.365L746.998 390.598L747.733 387.14Z" stroke="white" stroke-width="2"/>
<path d="M1389.26 622.766L1389.9 619.755L1387.62 621.815L1381.08 627.705L1373.45 623.304L1370.79 621.765L1372.04 624.576L1375.62 632.618L1369.08 638.508L1366.79 640.568L1369.85 640.246L1378.61 639.326L1382.19 647.368L1383.44 650.179L1384.08 647.169L1385.91 638.558L1394.66 637.638L1397.72 637.317L1395.06 635.778L1387.43 631.376L1389.26 622.766Z" stroke="white" stroke-width="2"/>
<path d="M99.9531 535.645L76.6907 544.342C73.8376 545.409 72.3895 548.587 73.4562 551.44L82.154 574.702C83.2208 577.555 86.3985 579.004 89.2516 577.937L112.514 569.239C115.367 568.172 116.815 564.995 115.748 562.141L107.051 538.879C105.984 536.026 102.806 534.578 99.9531 535.645Z" stroke="white" stroke-width="2"/>
<path d="M83.6292 555.312L89.0322 553.292L88.3449 551.453C88.2697 551.477 88.2084 551.493 88.1492 551.515C85.7872 552.398 83.4252 553.281 81.0636 554.165C81.0188 554.181 80.977 554.206 80.9336 554.227L86.0985 568.04C86.1866 568.002 86.273 567.959 86.3631 567.925C88.6567 567.067 90.9508 566.209 93.2446 565.351L93.5064 565.253L92.8094 563.389L87.4052 565.41L85.8387 561.22L91.2437 559.2L90.5496 557.343L85.1444 559.364L83.6291 555.311L83.6292 555.312Z" fill="white"/>
<path d="M100.013 560.595C102.141 560.442 103.562 559.261 104.417 557.353C104.514 557.137 104.631 557.008 104.856 556.929C105.488 556.71 106.111 556.466 106.737 556.232C106.81 556.205 106.885 556.184 106.966 556.158C106.88 556.969 106.617 557.807 106.193 558.6C105.261 560.341 103.546 561.865 101.187 562.418C99.6822 562.771 98.1372 562.616 96.7487 562.063C94.8354 561.302 93.219 559.784 92.4182 557.786C91.0054 554.262 92.3152 550.332 95.5483 548.41C98.5962 546.598 102.368 547.188 104.489 549.236C104.395 549.271 104.317 549.301 104.238 549.33C103.604 549.567 102.968 549.799 102.338 550.045C102.181 550.106 102.059 550.1 101.91 550.02C100.773 549.413 99.5716 549.139 98.2926 549.416C95.7299 549.969 93.9738 552.166 93.9748 554.789C93.976 558.105 96.784 560.828 100.013 560.595Z" fill="white"/>
<path d="M230.311 499C234.376 499 237.811 495.94 237.811 492C237.811 488.06 234.376 485 230.311 485C226.245 485 222.811 488.06 222.811 492C222.811 495.94 226.245 499 230.311 499Z" stroke="white" stroke-width="2"/>
<path d="M1200.81 64C1207.95 64 1213.81 58.4432 1213.81 51.5C1213.81 44.5568 1207.95 39 1200.81 39C1193.67 39 1187.81 44.5568 1187.81 51.5C1187.81 58.4432 1193.67 64 1200.81 64Z" stroke="white" stroke-width="2"/>
<path d="M764.811 499C772.505 499 778.811 492.992 778.811 485.5C778.811 478.008 772.505 472 764.811 472C757.116 472 750.811 478.008 750.811 485.5C750.811 492.992 757.116 499 764.811 499Z" stroke="white" stroke-width="2"/>
<path d="M885.811 675C897.914 675 907.811 665.643 907.811 654C907.811 642.357 897.914 633 885.811 633C873.707 633 863.811 642.357 863.811 654C863.811 665.643 873.707 675 885.811 675Z" stroke="white" stroke-width="2"/>
<path d="M525.811 70C536.249 70 544.811 61.9942 544.811 52C544.811 42.0058 536.249 34 525.811 34C515.372 34 506.811 42.0058 506.811 52C506.811 61.9942 515.372 70 525.811 70Z" stroke="white" stroke-width="2"/>
<path d="M462 181C472.438 181 481 172.994 481 163C481 153.006 472.438 145 462 145C451.561 145 443 153.006 443 163C443 172.994 451.561 181 462 181Z" stroke="white" stroke-width="2"/>
<path d="M851.533 288.298L838.109 273.587L823.398 287.011L836.822 301.722L851.533 288.298Z" stroke="white" stroke-width="2"/>
<path d="M163.56 231.939C165.519 233.668 166.559 235.451 166.681 237.289C166.795 239.031 166.094 240.809 164.578 242.625L164.319 242.928L146.334 263.315C144.638 265.238 142.874 266.25 141.041 266.352C139.304 266.451 137.511 265.727 135.662 264.18L135.353 263.915L103.114 235.477C101.155 233.748 100.112 231.968 99.9852 230.137C99.8662 228.4 100.564 226.625 102.079 224.81L102.339 224.507L120.324 204.119C122.031 202.184 123.801 201.165 125.634 201.063C127.37 200.965 129.163 201.689 131.013 203.236L131.322 203.501L163.56 231.939ZM105.502 226.996C104.643 227.97 104.245 228.924 104.31 229.857C104.37 230.719 104.801 231.535 105.602 232.304L105.812 232.497L120.751 245.674L129.503 235.753L129.372 235.637C128.213 236.323 126.914 236.808 125.474 237.093C124.038 237.377 122.573 237.492 121.11 237.436C119.722 237.393 118.342 237.197 116.997 236.854C115.726 236.52 114.686 236.096 113.874 235.581C113.273 235.183 112.957 234.693 112.925 234.11C112.894 233.529 113.061 233.032 113.424 232.62C113.821 232.17 114.274 231.921 114.783 231.872C115.23 231.828 115.679 231.945 116.131 232.222L116.326 232.35C117.041 232.849 117.946 233.22 119.039 233.462C120.178 233.711 121.339 233.843 122.505 233.856C123.677 233.877 124.85 233.798 126.009 233.619C126.989 233.464 127.84 233.25 128.562 232.977L128.862 232.856L112.818 218.703L105.502 226.996ZM150.784 252.194L134.74 238.041C134.509 238.858 134.375 239.834 134.34 240.968C134.307 242.14 134.375 243.314 134.542 244.475C134.711 245.679 134.982 246.805 135.355 247.855C135.687 248.788 136.101 249.562 136.598 250.178L136.788 250.401C137.231 250.88 137.459 251.376 137.474 251.887C137.488 252.4 137.297 252.881 136.901 253.33C136.537 253.742 136.065 253.969 135.484 254.01C134.904 254.053 134.378 253.8 133.906 253.252C133.282 252.501 132.728 251.519 132.245 250.305C131.742 249.014 131.38 247.673 131.163 246.305C130.925 244.852 130.858 243.394 130.961 241.931C131.041 240.688 131.307 239.464 131.748 238.299L131.918 237.883L131.768 237.751L123.016 247.672L137.974 260.867C138.898 261.682 139.829 262.066 140.77 262.02C141.639 261.976 142.472 261.537 143.27 260.705L143.469 260.488L150.784 252.194ZM161.069 235.109L160.863 234.92L145.905 221.725L140.24 228.147C141.304 227.724 142.429 227.474 143.572 227.407C144.633 227.346 145.696 227.477 146.71 227.796C147.685 228.104 148.585 228.613 149.35 229.291C150.698 230.481 151.425 231.915 151.53 233.595C151.635 235.274 151.082 236.8 149.871 238.173C149.178 238.96 148.362 239.544 147.425 239.928C146.465 240.315 145.438 240.511 144.402 240.505C143.43 240.504 142.462 240.373 141.524 240.116L141.107 239.995L152.6 250.135L161.155 240.438C162.014 239.464 162.411 238.504 162.347 237.56C162.287 236.687 161.862 235.869 161.069 235.109ZM143.641 219.727L128.7 206.548C127.764 205.722 126.826 205.338 125.887 205.397C125.018 205.452 124.185 205.896 123.389 206.73L123.189 206.946L114.635 216.644L126.111 226.767C125.656 225.754 125.353 224.679 125.212 223.578C125.077 222.549 125.14 221.503 125.4 220.498C125.656 219.512 126.145 218.602 126.825 217.843C128.036 216.471 129.485 215.734 131.17 215.635C132.857 215.536 134.367 216.075 135.702 217.252C136.488 217.946 137.1 218.763 137.536 219.703C137.978 220.669 138.241 221.707 138.312 222.767C138.381 223.756 138.303 224.751 138.08 225.717L137.975 226.148L143.641 219.727ZM133.508 220.044C132.835 219.45 132.119 219.179 131.361 219.232C130.604 219.286 129.912 219.668 129.285 220.379C128.767 220.966 128.433 221.709 128.283 222.609C128.133 223.507 128.17 224.472 128.393 225.502C128.635 226.577 129.036 227.609 129.583 228.565C130.083 229.452 130.717 230.263 131.486 230.998L131.824 231.309L132.386 231.804L132.849 231.279C133.617 230.418 134.237 229.435 134.682 228.37C135.101 227.375 135.349 226.316 135.415 225.238C135.472 224.19 135.344 223.217 135.028 222.316C134.726 221.439 134.202 220.656 133.507 220.042M146.854 231.817C146.164 231.209 145.327 230.792 144.426 230.607C143.494 230.406 142.512 230.4 141.48 230.588C140.417 230.789 139.395 231.164 138.454 231.698C137.578 232.191 136.78 232.813 136.089 233.543L135.787 233.871L135.324 234.396L135.887 234.892C136.779 235.691 137.8 236.333 138.906 236.79C139.92 237.213 140.992 237.48 142.086 237.581C143.129 237.669 144.088 237.582 144.962 237.322C145.836 237.061 146.532 236.637 147.049 236.05C147.677 235.339 147.973 234.607 147.937 233.854C147.902 233.102 147.541 232.423 146.854 231.817Z" fill="white"/>
<path d="M121.836 257.272C121.324 257.366 120.833 257.026 120.739 256.514L115.286 226.686C115.192 226.173 115.531 225.682 116.044 225.588L122.109 224.479C122.622 224.385 122.961 223.894 122.867 223.382L122.83 223.178C122.428 220.978 122.856 218.967 124.115 217.145C125.374 215.323 127.103 214.211 129.303 213.809C131.503 213.407 133.514 213.835 135.336 215.094C137.158 216.353 138.27 218.082 138.672 220.282L138.709 220.485C138.803 220.998 139.294 221.337 139.807 221.244L145.872 220.135C146.385 220.041 146.876 220.38 146.97 220.893L152.423 250.721C152.517 251.234 152.177 251.725 151.665 251.819L121.836 257.272ZM122.588 253.837C122.682 254.349 123.173 254.689 123.686 254.595L148.988 249.969C149.5 249.876 149.84 249.384 149.746 248.872L145.12 223.57C145.027 223.057 144.535 222.718 144.023 222.812L140.221 223.507C139.708 223.6 139.369 224.092 139.462 224.604L140.364 229.538C140.458 230.05 140.119 230.542 139.606 230.635L139.199 230.71C138.686 230.804 138.195 230.464 138.101 229.952L137.199 225.018C137.106 224.505 136.614 224.166 136.102 224.26L126.642 225.989C126.129 226.083 125.79 226.574 125.884 227.087L126.786 232.02C126.879 232.533 126.54 233.024 126.027 233.118L125.62 233.192C125.107 233.286 124.616 232.947 124.522 232.434L123.62 227.5C123.527 226.988 123.035 226.649 122.523 226.742L118.721 227.437C118.208 227.531 117.869 228.022 117.963 228.535L122.588 253.837ZM125.13 222.968C125.224 223.48 125.716 223.82 126.228 223.726L135.688 221.997C136.2 221.903 136.54 221.412 136.446 220.899L136.409 220.695C136.118 219.102 135.328 217.86 134.039 216.97C132.751 216.08 131.31 215.781 129.717 216.072C128.123 216.363 126.882 217.153 125.992 218.442C125.101 219.73 124.802 221.171 125.093 222.764L125.13 222.968Z" fill="white" fill-opacity="0.11"/>
<path d="M388.209 445.843C389.875 445.784 391.139 446.154 392.001 446.952C392.818 447.709 393.274 448.84 393.368 450.346L393.381 450.6L393.993 467.931C394.051 469.566 393.678 470.809 392.874 471.66C392.112 472.467 390.964 472.919 389.429 473.013L389.17 473.026L361.764 473.994C360.099 474.053 358.835 473.686 357.973 472.894C357.156 472.142 356.7 471.013 356.606 469.508L356.593 469.254L355.981 451.922C355.923 450.277 356.296 449.029 357.1 448.177C357.861 447.37 359.009 446.919 360.544 446.825L360.804 446.812L388.209 445.843ZM359.15 469.019C359.18 469.847 359.414 470.463 359.853 470.867C360.259 471.24 360.816 471.429 361.525 471.434L361.706 471.431L374.406 470.982L374.108 462.548L373.997 462.551C373.76 463.378 373.371 464.172 372.829 464.935C372.289 465.697 371.661 466.393 370.959 467.009C370.297 467.598 369.572 468.112 368.798 468.543C368.064 468.946 367.395 469.206 366.794 469.323C366.341 469.402 365.979 469.314 365.709 469.058C365.44 468.802 365.299 468.499 365.286 468.149C365.273 467.767 365.373 467.453 365.588 467.207C365.776 466.99 366.035 466.847 366.366 466.777L366.512 466.751C367.062 466.669 367.644 466.444 368.256 466.076C368.893 465.692 369.489 465.244 370.035 464.739C370.587 464.234 371.095 463.683 371.554 463.092C371.94 462.59 372.24 462.118 372.454 461.675L372.54 461.487L358.901 461.969L359.15 469.019ZM391.176 460.828L377.537 461.31C377.788 461.79 378.155 462.301 378.635 462.842C379.135 463.399 379.681 463.913 380.268 464.377C380.874 464.861 381.494 465.264 382.126 465.586C382.689 465.873 383.221 466.05 383.721 466.117L383.907 466.137C384.322 466.165 384.646 466.294 384.877 466.524C385.108 466.756 385.231 467.062 385.244 467.444C385.256 467.794 385.137 468.106 384.886 468.381C384.636 468.655 384.282 468.768 383.823 468.722C383.205 468.647 382.517 468.435 381.761 468.085C380.962 467.708 380.206 467.245 379.505 466.707C378.758 466.138 378.087 465.492 377.493 464.77C376.985 464.159 376.571 463.475 376.264 462.742L376.16 462.475L376.033 462.479L376.331 470.914L389.047 470.464C389.832 470.436 390.432 470.206 390.848 469.772C391.231 469.37 391.424 468.802 391.429 468.066L391.426 467.879L391.176 460.828ZM388.446 448.404L388.268 448.407L375.552 448.856L375.745 454.315C376.052 453.653 376.464 453.044 376.964 452.511C377.428 452.017 377.978 451.612 378.587 451.315C379.174 451.03 379.814 450.871 380.466 450.85C381.612 450.809 382.578 451.155 383.364 451.886C384.149 452.618 384.562 453.568 384.604 454.735C384.627 455.403 384.506 456.032 384.24 456.62C383.965 457.221 383.575 457.762 383.093 458.214C382.642 458.64 382.137 459.004 381.59 459.296L381.343 459.423L391.114 459.078L390.823 450.834C390.794 450.006 390.557 449.388 390.113 448.979C389.702 448.6 389.147 448.408 388.446 448.404ZM373.627 448.924L360.926 449.373C360.13 449.401 359.528 449.635 359.118 450.074C358.74 450.48 358.549 451.051 358.546 451.787L358.548 451.975L358.839 460.218L368.595 459.874C367.94 459.604 367.329 459.239 366.78 458.79C366.266 458.373 365.837 457.861 365.516 457.282C365.203 456.713 365.03 456.077 365.012 455.427C364.971 454.26 365.319 453.284 366.056 452.498C366.794 451.712 367.73 451.3 368.864 451.26C369.533 451.236 370.174 451.346 370.789 451.59C371.417 451.844 371.994 452.209 372.492 452.669C372.958 453.097 373.358 453.592 373.679 454.137L373.819 454.383L373.627 448.924ZM369.073 453.515C368.5 453.535 368.05 453.724 367.722 454.081C367.395 454.437 367.242 454.918 367.264 455.523C367.281 456.022 367.453 456.512 367.778 456.995C368.102 457.477 368.542 457.908 369.098 458.287C369.681 458.678 370.32 458.981 370.992 459.184C371.613 459.375 372.262 459.472 372.941 459.476L373.234 459.471L373.711 459.454L373.695 459.008C373.674 458.272 373.53 457.545 373.269 456.857C373.026 456.212 372.676 455.613 372.234 455.084C371.801 454.574 371.314 454.179 370.773 453.901C370.249 453.627 369.662 453.494 369.071 453.515M380.418 453.114C379.832 453.135 379.261 453.309 378.763 453.618C378.243 453.935 377.785 454.363 377.39 454.902C376.986 455.461 376.677 456.083 376.475 456.743C376.286 457.356 376.189 457.994 376.189 458.635L376.193 458.92L376.209 459.366L376.687 459.349C377.451 459.328 378.205 459.177 378.918 458.904C379.573 458.655 380.187 458.308 380.738 457.875C381.26 457.458 381.666 456.998 381.956 456.494C382.247 455.989 382.383 455.488 382.365 454.989C382.344 454.385 382.16 453.916 381.814 453.583C381.467 453.249 381.002 453.093 380.418 453.114Z" fill="white"/>
<path d="M379.995 475.88C379.799 476.148 379.422 476.206 379.154 476.01L363.545 464.586C363.277 464.39 363.219 464.013 363.415 463.745L365.738 460.571C365.934 460.303 365.876 459.926 365.608 459.73L365.501 459.652C364.35 458.81 363.666 457.69 363.45 456.294C363.234 454.898 363.547 453.625 364.389 452.473C365.232 451.322 366.351 450.639 367.747 450.423C369.143 450.206 370.417 450.52 371.568 451.362L371.675 451.44C371.943 451.636 372.319 451.578 372.516 451.31L374.839 448.136C375.035 447.868 375.411 447.809 375.679 448.006L391.289 459.429C391.557 459.626 391.615 460.002 391.419 460.27L379.995 475.88ZM378.837 473.959C379.105 474.155 379.481 474.097 379.678 473.828L389.368 460.588C389.564 460.32 389.506 459.943 389.238 459.747L375.997 450.057C375.729 449.86 375.352 449.919 375.156 450.187L373.7 452.177C373.504 452.445 373.562 452.821 373.83 453.017L376.412 454.907C376.68 455.103 376.738 455.48 376.542 455.748L376.386 455.961C376.19 456.229 375.813 456.288 375.545 456.091L372.963 454.202C372.695 454.006 372.319 454.064 372.123 454.332L368.5 459.282C368.303 459.551 368.362 459.927 368.63 460.123L371.212 462.013C371.48 462.209 371.538 462.586 371.342 462.854L371.186 463.067C370.989 463.335 370.613 463.393 370.345 463.197L367.763 461.308C367.495 461.111 367.118 461.17 366.922 461.438L365.466 463.428C365.27 463.696 365.328 464.072 365.596 464.268L378.837 473.959ZM366.474 458.546C366.742 458.742 367.119 458.684 367.315 458.416L370.938 453.465C371.134 453.197 371.076 452.821 370.808 452.624L370.701 452.546C369.868 451.936 368.957 451.707 367.97 451.86C366.983 452.013 366.184 452.506 365.574 453.34C364.964 454.174 364.735 455.084 364.888 456.072C365.041 457.059 365.534 457.858 366.368 458.468L366.474 458.546Z" fill="white" fill-opacity="0.11"/>
<path d="M1290.97 333.942C1293.4 332.987 1295.46 332.875 1297.16 333.605C1298.76 334.299 1300.02 335.734 1300.94 337.911L1301.1 338.28L1311.03 363.586C1311.97 365.973 1312.06 368.005 1311.32 369.682C1310.61 371.273 1309.15 372.538 1306.93 373.477L1306.55 373.631L1266.54 389.342C1264.11 390.296 1262.05 390.412 1260.36 389.69C1258.76 389.003 1257.5 387.572 1256.57 385.396L1256.42 385.027L1246.49 359.721C1245.55 357.319 1245.45 355.279 1246.19 353.601C1246.9 352.011 1248.36 350.746 1250.58 349.806L1250.96 349.652L1290.97 333.942ZM1260.08 383.348C1260.56 384.557 1261.22 385.345 1262.08 385.714C1262.88 386.053 1263.8 386.042 1264.85 385.681L1265.12 385.582L1283.66 378.301L1278.83 365.986L1278.66 366.05C1278.74 367.395 1278.58 368.772 1278.18 370.183C1277.78 371.591 1277.21 372.947 1276.49 374.223C1275.82 375.438 1275.02 376.577 1274.1 377.617C1273.22 378.596 1272.37 379.328 1271.54 379.815C1270.91 380.168 1270.33 380.226 1269.8 379.988C1269.27 379.751 1268.9 379.376 1268.7 378.865C1268.48 378.307 1268.47 377.79 1268.66 377.314C1268.82 376.896 1269.13 376.55 1269.58 376.274L1269.79 376.159C1270.56 375.75 1271.3 375.115 1272.01 374.252C1272.75 373.353 1273.4 372.38 1273.94 371.348C1274.5 370.314 1274.96 369.235 1275.33 368.122C1275.64 367.179 1275.84 366.324 1275.93 365.557L1275.95 365.235L1256.04 373.053L1260.08 383.348ZM1303.17 354.552L1283.25 362.37C1283.87 362.949 1284.68 363.513 1285.67 364.062C1286.7 364.626 1287.78 365.102 1288.89 365.482C1290.03 365.881 1291.16 366.154 1292.26 366.301C1293.25 366.432 1294.12 366.416 1294.9 366.255L1295.18 366.187C1295.81 366.012 1296.36 366.035 1296.82 366.255C1297.28 366.477 1297.62 366.866 1297.84 367.424C1298.04 367.935 1298.03 368.459 1297.8 368.995C1297.57 369.531 1297.11 369.883 1296.41 370.053C1295.45 370.266 1294.33 370.31 1293.03 370.187C1291.65 370.045 1290.29 369.755 1288.97 369.324C1287.57 368.872 1286.24 368.267 1284.99 367.508C1283.92 366.869 1282.95 366.075 1282.12 365.15L1281.82 364.81L1281.64 364.883L1286.47 377.197L1305.04 369.908C1306.18 369.458 1306.95 368.804 1307.34 367.946C1307.7 367.153 1307.69 366.212 1307.31 365.122L1307.21 364.846L1303.17 354.552ZM1292.66 337.604L1292.39 337.701L1273.83 344.99L1276.96 352.962C1277.07 351.822 1277.36 350.707 1277.82 349.66C1278.25 348.687 1278.85 347.801 1279.6 347.044C1280.32 346.317 1281.18 345.749 1282.13 345.378C1283.81 344.721 1285.41 344.729 1286.96 345.401C1288.5 346.074 1289.6 347.263 1290.27 348.966C1290.66 349.943 1290.8 350.935 1290.72 351.944C1290.62 352.975 1290.33 353.978 1289.85 354.898C1289.41 355.762 1288.85 356.563 1288.19 357.281L1287.9 357.597L1302.16 351.996L1297.44 339.959C1296.96 338.75 1296.29 337.959 1295.42 337.586C1294.62 337.24 1293.69 337.246 1292.66 337.604ZM1271.02 346.094L1252.47 353.375C1251.31 353.831 1250.54 354.49 1250.16 355.353C1249.82 356.151 1249.83 357.095 1250.21 358.185L1250.31 358.461L1255.04 370.498L1269.28 364.905C1268.17 364.847 1267.08 364.626 1266.03 364.249C1265.06 363.9 1264.16 363.366 1263.38 362.677C1262.62 361.999 1262.03 361.149 1261.67 360.197C1261 358.493 1261 356.869 1261.68 355.323C1262.37 353.777 1263.53 352.679 1265.19 352.029C1266.17 351.645 1267.17 351.474 1268.21 351.515C1269.27 351.563 1270.31 351.803 1271.29 352.223C1272.2 352.613 1273.05 353.136 1273.81 353.775L1274.14 354.065L1271.02 346.094ZM1266.67 355.255C1265.84 355.583 1265.27 356.096 1264.97 356.795C1264.67 357.493 1264.7 358.283 1265.05 359.166C1265.33 359.894 1265.84 360.53 1266.57 361.074C1267.3 361.618 1268.18 362.026 1269.2 362.297C1270.26 362.572 1271.37 362.686 1272.47 362.636C1273.48 362.596 1274.49 362.401 1275.5 362.053L1275.93 361.893L1276.63 361.62L1276.37 360.968C1275.96 359.891 1275.36 358.891 1274.62 358.009C1273.92 357.182 1273.1 356.479 1272.17 355.928C1271.26 355.399 1270.34 355.069 1269.39 354.939C1268.47 354.807 1267.54 354.916 1266.67 355.255M1283.24 348.751C1282.38 349.088 1281.63 349.642 1281.06 350.359C1280.45 351.097 1280 351.969 1279.7 352.972C1279.39 354.01 1279.26 355.09 1279.3 356.171C1279.34 357.176 1279.53 358.169 1279.86 359.118L1280.02 359.536L1280.27 360.187L1280.97 359.913C1282.09 359.484 1283.13 358.868 1284.04 358.092C1284.88 357.384 1285.6 356.551 1286.19 355.624C1286.75 354.735 1287.11 353.843 1287.28 352.946C1287.44 352.05 1287.38 351.237 1287.1 350.509C1286.75 349.626 1286.23 349.029 1285.55 348.717C1284.86 348.405 1284.09 348.416 1283.24 348.751Z" fill="white"/>
<path d="M1294.48 382.629C1294.33 383.127 1293.8 383.41 1293.3 383.259L1264.27 374.502C1263.77 374.351 1263.49 373.825 1263.64 373.326L1265.42 367.423C1265.57 366.924 1265.29 366.398 1264.79 366.248L1264.59 366.188C1262.45 365.542 1260.86 364.243 1259.81 362.292C1258.76 360.34 1258.56 358.294 1259.21 356.153C1259.85 354.012 1261.15 352.418 1263.1 351.371C1265.06 350.324 1267.1 350.124 1269.24 350.77L1269.44 350.829C1269.94 350.98 1270.47 350.697 1270.62 350.199L1272.4 344.296C1272.55 343.797 1273.07 343.515 1273.57 343.665L1302.6 352.423C1303.1 352.573 1303.38 353.099 1303.23 353.598L1294.48 382.629ZM1291.76 380.392C1292.26 380.543 1292.79 380.26 1292.94 379.762L1300.37 355.136C1300.52 354.638 1300.23 354.111 1299.74 353.961L1275.11 346.532C1274.61 346.382 1274.09 346.664 1273.94 347.163L1272.82 350.863C1272.67 351.362 1272.95 351.888 1273.45 352.039L1278.25 353.487C1278.75 353.638 1279.03 354.164 1278.88 354.663L1278.76 355.059C1278.61 355.558 1278.09 355.84 1277.59 355.69L1272.79 354.241C1272.29 354.091 1271.76 354.373 1271.61 354.872L1268.83 364.079C1268.68 364.578 1268.96 365.104 1269.46 365.254L1274.26 366.703C1274.76 366.853 1275.05 367.38 1274.9 367.878L1274.78 368.275C1274.63 368.774 1274.1 369.056 1273.6 368.905L1268.8 367.457C1268.3 367.306 1267.77 367.589 1267.62 368.088L1266.51 371.788C1266.36 372.287 1266.64 372.813 1267.14 372.963L1291.76 380.392ZM1265.45 364.045C1265.95 364.195 1266.48 363.913 1266.63 363.414L1269.41 354.207C1269.56 353.709 1269.28 353.182 1268.78 353.032L1268.58 352.972C1267.03 352.504 1265.56 352.641 1264.18 353.381C1262.8 354.121 1261.88 355.267 1261.41 356.817C1260.94 358.368 1261.08 359.833 1261.82 361.213C1262.56 362.593 1263.71 363.517 1265.26 363.985L1265.45 364.045Z" fill="white" fill-opacity="0.11"/>
<path d="M705.88 308.15C705.336 308.25 704.815 307.89 704.716 307.346L698.934 275.723C698.835 275.179 699.195 274.659 699.738 274.559L706.169 273.384C706.712 273.284 707.072 272.763 706.973 272.22L706.933 272.004C706.507 269.672 706.961 267.54 708.295 265.608C709.63 263.676 711.463 262.497 713.796 262.071C716.128 261.645 718.26 262.099 720.191 263.433C722.123 264.768 723.302 266.601 723.729 268.933L723.768 269.149C723.867 269.693 724.388 270.053 724.932 269.953L731.362 268.778C731.905 268.678 732.426 269.038 732.526 269.581L738.307 301.205C738.406 301.748 738.047 302.269 737.503 302.369L705.88 308.15ZM706.677 304.508C706.776 305.052 707.297 305.412 707.84 305.312L734.665 300.408C735.209 300.309 735.568 299.788 735.469 299.244L730.565 272.419C730.466 271.876 729.945 271.516 729.401 271.616L725.37 272.353C724.827 272.452 724.467 272.973 724.566 273.516L725.523 278.747C725.622 279.29 725.262 279.811 724.719 279.91L724.287 279.989C723.744 280.089 723.223 279.729 723.123 279.185L722.167 273.955C722.068 273.412 721.547 273.052 721.004 273.151L710.974 274.985C710.431 275.084 710.071 275.605 710.17 276.148L711.127 281.379C711.226 281.922 710.866 282.443 710.323 282.542L709.891 282.621C709.347 282.721 708.827 282.361 708.727 281.817L707.771 276.587C707.672 276.043 707.151 275.684 706.607 275.783L702.576 276.52C702.033 276.619 701.673 277.14 701.773 277.683L706.677 304.508ZM709.372 271.781C709.471 272.325 709.992 272.685 710.535 272.585L720.565 270.752C721.108 270.652 721.468 270.131 721.369 269.588L721.329 269.372C721.02 267.683 720.183 266.366 718.817 265.423C717.451 264.479 715.923 264.161 714.234 264.47C712.545 264.779 711.229 265.617 710.285 266.983C709.341 268.349 709.024 269.876 709.332 271.565L709.372 271.781Z" fill="white"/>
<path d="M1309.09 183.916C1308.53 183.926 1308.08 183.487 1308.07 182.935L1307.46 150.793C1307.45 150.241 1307.89 149.784 1308.44 149.774L1314.98 149.651C1315.53 149.641 1315.97 149.184 1315.96 148.632L1315.96 148.413C1315.91 146.042 1316.7 144.012 1318.33 142.32C1319.96 140.629 1321.96 139.761 1324.33 139.717C1326.7 139.672 1328.73 140.464 1330.42 142.093C1332.11 143.721 1332.98 145.721 1333.03 148.091L1333.03 148.311C1333.04 148.863 1333.5 149.302 1334.05 149.292L1340.59 149.169C1341.14 149.158 1341.59 149.597 1341.6 150.15L1342.21 182.292C1342.22 182.844 1341.78 183.3 1341.23 183.31L1309.09 183.916ZM1310.46 180.45C1310.47 181.002 1310.93 181.442 1311.48 181.431L1338.74 180.918C1339.3 180.907 1339.74 180.451 1339.72 179.899L1339.21 152.634C1339.2 152.082 1338.74 151.643 1338.19 151.653L1334.1 151.73C1333.54 151.741 1333.1 152.197 1333.11 152.749L1333.21 158.066C1333.23 158.618 1332.79 159.074 1332.23 159.084L1331.79 159.092C1331.24 159.103 1330.79 158.664 1330.78 158.112L1330.68 152.795C1330.67 152.243 1330.21 151.804 1329.66 151.814L1319.46 152.006C1318.91 152.016 1318.47 152.473 1318.48 153.025L1318.58 158.341C1318.59 158.893 1318.15 159.349 1317.6 159.36L1317.16 159.368C1316.61 159.378 1316.15 158.939 1316.14 158.387L1316.04 153.071C1316.03 152.518 1315.58 152.079 1315.03 152.09L1310.93 152.167C1310.38 152.177 1309.94 152.633 1309.95 153.185L1310.46 180.45ZM1318.4 148.586C1318.41 149.139 1318.87 149.578 1319.42 149.567L1329.61 149.375C1330.16 149.365 1330.6 148.909 1330.59 148.357L1330.59 148.137C1330.56 146.42 1329.94 144.986 1328.75 143.834C1327.55 142.683 1326.09 142.123 1324.38 142.155C1322.66 142.188 1321.23 142.802 1320.07 143.998C1318.92 145.194 1318.36 146.65 1318.39 148.367L1318.4 148.586Z" fill="white"/>
</g>
</svg>
