<svg width="34" height="34" viewBox="0 0 34 34" fill="none" xmlns="http://www.w3.org/2000/svg">
<path d="M3.00078 16.6915C3.07504 13.0884 4.54149 9.65391 7.09261 7.10833C8.37749 5.82345 9.87189 4.81136 11.5363 4.10765C13.26 3.38021 15.0905 3.00859 16.9763 3.00859C18.866 3.00859 20.6965 3.37626 22.4162 4.10765C24.0806 4.81136 25.5751 5.82345 26.8599 7.10833C27.2553 7.50367 27.6229 7.91879 27.9629 8.34971L25.9862 9.89552C25.9391 9.93194 25.9033 9.98092 25.8828 10.0368C25.8623 10.0927 25.858 10.1533 25.8704 10.2115C25.8828 10.2697 25.9113 10.3233 25.9528 10.366C25.9943 10.4087 26.047 10.4389 26.1048 10.453L32.3038 11.9671C32.5015 12.0146 32.6952 11.8643 32.6952 11.6627L32.7269 5.27787C32.7269 5.01299 32.4224 4.86276 32.2169 5.0288L30.3271 6.5074C27.2276 2.54208 22.4004 0 16.9802 0C7.70935 0 0.170098 7.43646 9.88603e-05 16.6757C-0.000956339 16.7179 0.00644465 16.7599 0.0218659 16.7992C0.0372872 16.8385 0.0604167 16.8743 0.0898915 16.9045C0.119366 16.9347 0.15459 16.9587 0.193487 16.9751C0.232385 16.9915 0.274168 16.9999 0.316376 16.9999H2.68845C2.85845 16.9999 2.99682 16.8615 3.00078 16.6915ZM33.6836 16.9999H31.3115C31.1415 16.9999 30.9992 17.1383 30.9952 17.3083C30.921 20.9114 29.4545 24.3459 26.9034 26.8915C25.6303 28.1698 24.1212 29.1889 22.4597 29.8921C20.736 30.6196 18.9056 30.9912 17.0198 30.9912C15.134 30.9912 13.2995 30.6235 11.5798 29.8921C9.91834 29.1889 8.40919 28.1698 7.1361 26.8915C6.74075 26.4961 6.37308 26.081 6.03308 25.6501L8.00586 24.1043C8.05295 24.0678 8.0888 24.0189 8.10929 23.963C8.12979 23.9071 8.13408 23.8465 8.12169 23.7883C8.1093 23.73 8.08073 23.6765 8.03926 23.6338C7.99778 23.5911 7.9451 23.5609 7.88726 23.5468L1.68823 22.0326C1.49055 21.9852 1.29683 22.1354 1.29683 22.3371L1.26521 28.7298C1.26521 28.9947 1.56962 29.1449 1.7752 28.9789L3.66496 27.5003C6.77238 31.4577 11.5996 33.9998 17.0198 33.9998C26.2906 33.9998 33.8299 26.5633 33.9999 17.3241C34.0009 17.2819 33.9935 17.2399 33.9781 17.2006C33.9627 17.1613 33.9396 17.1255 33.9101 17.0953C33.8806 17.0651 33.8454 17.0411 33.8065 17.0247C33.7676 17.0083 33.7258 16.9999 33.6836 16.9999Z" fill="white"/>
<path d="M18.0384 24.4299C16.495 24.4299 15.1217 23.9918 13.9183 23.1154C12.715 22.2391 11.8648 21.1077 11.3678 19.7213H9.40587C9.18352 19.7213 8.99727 19.6459 8.84711 19.4953C8.69696 19.3446 8.62162 19.1583 8.6211 18.9365C8.62057 18.7147 8.69591 18.5284 8.84711 18.3777C8.99831 18.2271 9.18457 18.1517 9.40587 18.1517H11.0147C10.9754 17.8378 10.9592 17.5469 10.966 17.2791C10.9728 17.0112 10.989 16.7789 11.0147 16.5822H9.40587C9.18352 16.5822 8.99727 16.5068 8.84711 16.3562C8.69696 16.2055 8.62162 16.0192 8.6211 15.7974C8.62057 15.5756 8.69591 15.3893 8.84711 15.2386C8.99831 15.088 9.18457 15.0126 9.40587 15.0126H11.3678C11.8648 13.6262 12.715 12.4948 13.9183 11.6185C15.1217 10.7421 16.495 10.304 18.0384 10.304C18.797 10.304 19.5198 10.4151 20.2068 10.6375C20.8937 10.8598 21.5312 11.1803 22.1193 11.5988C22.3024 11.7296 22.4005 11.9031 22.4136 12.1191C22.4266 12.3352 22.3547 12.5149 22.1977 12.6583C22.0408 12.8152 21.8511 12.8971 21.6288 12.9039C21.4064 12.9107 21.2037 12.855 21.0206 12.7368C20.5889 12.4621 20.1215 12.2497 19.6182 12.0995C19.1149 11.9494 18.5883 11.874 18.0384 11.8735C16.9267 11.8735 15.9326 12.1647 15.0563 12.747C14.1799 13.3293 13.5194 14.0845 13.0747 15.0126H17.2536C17.476 15.0126 17.6625 15.088 17.8132 15.2386C17.9639 15.3893 18.0389 15.5756 18.0384 15.7974C18.0379 16.0192 17.9626 16.2057 17.8124 16.3569C17.6623 16.5081 17.476 16.5832 17.2536 16.5822H12.6038C12.5515 16.9353 12.5319 17.2461 12.545 17.5145C12.5581 17.7829 12.5777 17.9953 12.6038 18.1517H17.2536C17.476 18.1517 17.6625 18.2271 17.8132 18.3777C17.9639 18.5284 18.0389 18.7147 18.0384 18.9365C18.0379 19.1583 17.9626 19.3448 17.8124 19.496C17.6623 19.6472 17.476 19.7223 17.2536 19.7213H13.0747C13.5194 20.6499 14.1799 21.4054 15.0563 21.9877C15.9326 22.57 16.9267 22.8609 18.0384 22.8604C18.5878 22.8604 19.1144 22.7819 19.6182 22.625C20.122 22.468 20.5895 22.2522 21.0206 21.9775C21.2037 21.8598 21.4064 21.8075 21.6288 21.8206C21.8511 21.8336 22.0408 21.9187 22.1977 22.0756C22.3547 22.2195 22.4266 22.3995 22.4136 22.6155C22.4005 22.8316 22.3024 23.0048 22.1193 23.1351C21.5307 23.5536 20.8932 23.8741 20.2068 24.0964C19.5203 24.3188 18.7976 24.4299 18.0384 24.4299Z" fill="white"/>
</svg>
